<svg width="40" height="34" viewBox="0 0 40 34" fill="none" xmlns="http://www.w3.org/2000/svg">
<path d="M0.639362 15.4459L15.0848 1.00014C15.4971 0.58779 16.0467 0.36145 16.6327 0.36145C17.2194 0.36145 17.7686 0.588115 18.181 1.00014L19.4925 2.312C19.9046 2.72371 20.1316 3.27362 20.1316 3.85996C20.1316 4.44597 19.9046 5.01442 19.4925 5.42612L11.0653 13.8719H37.839C39.0462 13.8719 40 14.8169 40 16.0244V17.879C40 19.0865 39.0462 20.1268 37.839 20.1268H10.9697L19.4922 28.6198C19.9042 29.0321 20.1312 29.5671 20.1312 30.1534C20.1312 30.7391 19.9042 31.2818 19.4922 31.6939L18.1807 33.0015C17.7683 33.4139 17.2191 33.6386 16.6324 33.6386C16.0464 33.6386 15.4968 33.4109 15.0844 32.9986L0.639038 18.5532C0.225708 18.1395 -0.00160599 17.5873 2.28882e-05 17.0003C-0.00127792 16.4114 0.225708 15.8589 0.639362 15.4459Z" fill="white"/>
</svg>
