<svg width="131" height="109" viewBox="0 0 131 109" fill="none" xmlns="http://www.w3.org/2000/svg">
<path d="M130.884 56.9986C130.801 56.9303 130.681 56.9086 130.588 56.9402C130.473 56.9753 130.369 57.0058 130.27 57.0347L130.222 57.0488C129.978 57.1201 129.767 57.1812 129.559 57.2649C126.265 58.5737 123.672 60.816 121.631 64.1196C121.127 64.9358 120.736 65.7843 120.425 66.6305C120.935 63.7843 121.053 62.6755 121.144 59.4908C121.148 59.3571 121.148 59.2212 121.148 59.0863C121.148 58.7178 121.148 58.3698 121.228 58.0523C121.325 57.676 121.519 57.3007 121.707 56.9375C121.76 56.8348 121.812 56.732 121.856 56.6417C121.871 56.6239 121.92 56.5941 121.939 56.5911C122.881 56.4473 123.714 56.0474 124.487 55.3687C125.265 54.6814 125.905 53.8402 126.389 52.8676C128.127 49.3818 128.997 45.529 128.975 41.4173C128.973 41.0207 128.927 40.6346 128.875 40.2146C128.852 40.0265 128.828 39.834 128.809 39.6347C128.797 39.5254 128.73 39.4282 128.633 39.3809C128.536 39.3343 128.42 39.3376 128.323 39.3963C128.264 39.4331 128.214 39.463 128.168 39.4896C128.08 39.5421 128.013 39.5832 127.949 39.6291C126.466 40.692 125.158 42.0153 124.061 43.5612C122.271 46.0878 121.23 48.9448 120.95 52.0878C120.922 51.7374 120.893 51.3871 120.865 51.0367L120.855 50.9097C120.745 49.5362 120.632 48.1157 120.539 46.7189C120.516 46.3653 120.448 46.0212 120.382 45.6882C120.255 45.0483 120.136 44.4438 120.327 43.8104C120.371 43.6672 120.408 43.5231 120.445 43.3792C120.535 43.023 120.973 42.4743 121.645 41.8744L121.67 41.8518C121.918 41.6416 123.192 40.4766 123.914 38.1723C124.647 35.8311 124.592 33.3849 124.551 31.5987L124.55 31.551C124.496 29.0956 124.231 27.2454 123.69 25.5508C123.62 25.334 123.537 25.1203 123.449 24.8957C123.403 24.7788 123.357 24.658 123.309 24.5316C123.269 24.4245 123.175 24.3467 123.064 24.3283L123.01 24.3234C122.914 24.3234 122.824 24.3664 122.764 24.4406L122.238 25.0812C119.718 28.1552 118.479 31.7605 118.557 35.7973C118.57 36.5082 118.624 37.2374 118.718 37.9903C118.077 35.7796 117.326 33.6275 116.471 31.5573C116.454 31.512 116.442 31.4558 116.441 31.4082L116.435 31.1252C116.426 30.7167 116.417 30.2941 116.434 29.8784C116.437 29.8095 116.482 29.6857 116.575 29.5639C116.707 29.3895 116.853 29.2191 117.005 29.0418C117.263 28.741 117.53 28.4304 117.742 28.0758C118.423 26.9351 118.742 25.5875 118.748 23.8345C118.757 21.7708 118.439 19.5991 117.745 16.9995C117.366 15.5814 116.794 13.739 115.729 12.0687C115.657 11.9564 115.576 11.8506 115.49 11.7387C115.451 11.6891 115.411 11.6362 115.369 11.5794C115.309 11.4983 115.225 11.451 115.091 11.451C114.983 11.4589 114.888 11.52 114.834 11.6149C113.497 14.0279 112.831 16.6058 112.8 19.496C112.773 21.9057 113.149 23.9793 113.621 25.6181C112.42 23.4244 111.086 21.3048 109.639 19.2944L109.606 19.2487C109.573 19.205 109.559 19.1837 109.562 19.1988C109.471 18.5483 109.408 18.0279 109.364 17.5748C109.365 17.5679 109.374 17.5298 109.441 17.4168C109.537 17.254 109.641 17.0944 109.753 16.9256C109.976 16.5861 110.207 16.2348 110.354 15.8414C110.8 14.6541 110.9 13.3075 110.66 11.7262C110.131 8.22629 108.588 5.07477 105.944 2.09104C105.672 1.78469 105.371 1.5138 105.053 1.22748L104.965 1.14769C104.84 1.03507 104.713 0.919815 104.584 0.797997C104.501 0.71985 104.384 0.690627 104.27 0.724119C104.162 0.758267 104.079 0.847578 104.054 0.95856L103.996 1.21205C103.956 1.38016 103.926 1.51282 103.903 1.64613C103.547 3.77056 103.573 6.04604 103.983 8.60324C104.389 11.1394 105.2 13.3269 106.442 15.2271C104.579 13.0311 102.766 11.187 100.871 9.55283C100.863 9.54166 100.85 9.50784 100.849 9.49931C100.997 8.22366 100.683 7.0219 99.8868 5.82538C98.8416 4.25291 97.3893 3.05443 95.5703 2.26376C94.4818 1.79159 93.3539 1.3736 92.2497 0.964143C91.7207 0.767789 91.1917 0.572092 90.647 0.362275C90.0996 0.144578 89.8655 0.105833 89.7384 0.223382C89.5749 0.375737 89.6143 0.505765 89.6856 0.742178L89.7085 0.81934C90.3761 3.06789 91.262 4.84624 92.4174 6.25585C94.5386 8.84622 97.0193 10.1622 99.9974 10.2785C100.102 10.2847 100.185 10.3136 100.218 10.3399C100.638 10.6538 100.946 10.905 101.219 11.1539C102.082 11.9426 102.932 12.7828 103.763 13.6677C102.527 12.8994 101.015 12.5526 99.3131 12.6387C98.3816 12.6856 97.457 12.8222 96.5629 12.9542L96.5287 12.9595C96.2644 12.9982 96.0014 13.0366 95.739 13.0737C95.1644 13.1516 94.5852 13.2533 94.0736 13.3427C93.8665 13.3798 93.3716 13.4924 93.2577 13.7324C93.2183 13.8145 93.2216 13.9045 93.2662 13.9862C93.3056 14.0575 93.349 14.1245 93.3963 14.1855C94.8729 16.1015 96.5573 17.3633 98.5458 18.0427C100.97 18.8754 103.197 18.8068 105.198 17.8273C105.504 17.6588 105.873 17.5735 106.295 17.5735C106.613 17.5735 106.852 17.6237 106.931 17.6418C107.049 17.6615 107.21 17.7278 107.243 17.7705C108.488 19.4066 109.669 21.1541 110.772 22.9899C109.84 22.0837 108.625 21.4726 106.969 21.0747C105.518 20.7289 104.035 20.6547 102.6 20.5825L102.12 20.5582C101.67 20.5352 101.22 20.5066 100.757 20.4774L99.98 20.4295C99.8796 20.4295 99.784 20.4781 99.7256 20.5588C99.6609 20.6458 99.6454 20.7588 99.6835 20.8603C99.7147 20.945 99.7715 21.0944 99.8008 21.1443C101.313 23.6746 103.09 25.4247 105.231 26.4951C107.324 27.5406 109.215 27.817 111.122 27.361C111.343 27.3078 111.598 27.2795 111.863 27.2795C112.674 27.2795 113.24 27.5271 113.359 27.7563C114.408 29.9211 115.345 32.1706 116.152 34.4652C115.305 33.2972 114.12 32.3486 112.621 31.639C111.131 30.9357 109.579 30.2928 108.053 29.6601C107.397 29.3889 106.738 29.1167 106.082 28.8382C105.985 28.7955 105.869 28.8044 105.778 28.8645C105.689 28.9239 105.636 29.0231 105.636 29.1298C105.636 29.3347 107.813 35.3767 110.975 37.7575C112.264 38.7288 113.853 39.728 115.856 39.7749C116.456 39.7871 117.076 39.8718 117.544 40.4041C117.615 40.4888 117.71 40.5548 117.814 40.5899C117.974 40.6424 118.018 40.7403 118.096 41.0739C118.745 43.7979 119.218 46.6056 119.509 49.4567C119.421 49.1674 119.319 48.8752 119.201 48.5793C118.494 46.7849 117.303 45.2147 115.454 43.6377C114.5 42.8214 113.502 42.031 112.537 41.2663L112.491 41.2302C112.051 40.8818 111.613 40.5347 111.175 40.1834C111.085 40.1108 110.997 40.036 110.895 39.9486L110.622 39.7148C110.526 39.6341 110.384 39.6173 110.273 39.6731C110.158 39.7313 110.089 39.8514 110.098 39.9798C110.112 40.1726 110.122 40.3548 110.133 40.5298L110.138 40.6116C110.16 40.9718 110.18 41.3116 110.216 41.6472C110.559 44.9146 111.53 47.6426 113.187 49.9867C114.212 51.4357 115.683 53.2068 117.977 54.0444C118.535 54.2493 118.94 54.5596 119.374 55.1165C119.783 55.6379 119.859 56.1143 119.85 56.7139C119.811 59.2255 119.632 61.717 119.316 64.157C119.242 63.478 119.086 62.7789 118.846 62.0526C118.349 60.5487 117.575 59.0866 116.479 57.5827C115.532 56.2805 114.548 54.9737 113.595 53.7092L113.532 53.6248C113.154 53.1241 112.777 52.6227 112.41 52.1321C112.341 52.0313 112.241 51.9952 112.184 51.9752C112.102 51.9354 112.005 51.9315 111.919 51.9683C111.834 52.0044 111.769 52.0756 111.741 52.163L111.729 52.1971C111.714 52.2431 111.701 52.2838 111.695 52.3245C111.038 56.2404 111.441 59.7489 112.926 63.0514C113.651 64.6663 114.624 66.4945 116.339 67.8099C117.123 68.4104 117.741 69.253 118.08 70.1819C118.152 70.3819 118.15 70.4686 118.141 70.502C117.415 73.5091 116.467 76.4094 115.314 79.1544C115.611 77.7077 115.591 76.1881 115.252 74.6137C114.771 72.3822 113.944 70.2197 113.207 68.3678L112.986 67.8132C112.64 66.9453 112.292 66.0706 111.932 65.164C111.887 65.0481 111.777 64.969 111.63 64.9618C111.514 64.9618 111.408 65.0278 111.353 65.1348L111.237 65.3528C111.186 65.4484 111.138 65.5374 111.098 65.6293C109.614 68.9765 109.113 72.4078 109.609 75.8279C109.964 78.2735 110.565 80.0246 111.558 81.5061C112.072 82.2718 112.56 83.1249 112.648 84.1739C112.67 84.4222 112.66 84.5932 112.549 84.788C111.297 86.981 109.893 89.0506 108.355 90.9734C108.361 90.9629 108.366 90.9524 108.372 90.9419C109.479 88.9203 109.512 86.7344 109.399 84.8625C109.302 83.2578 109.118 81.6555 108.941 80.1063L108.931 80.0167C108.859 79.3961 108.788 78.7758 108.724 78.1543C108.686 77.8019 108.645 77.4496 108.602 77.0921L108.545 76.6081C108.532 76.501 108.467 76.4084 108.373 76.3618C108.198 76.2705 107.916 76.4114 107.61 76.7726C105.512 79.2546 104.21 82.0594 103.739 85.1094C103.252 88.2718 103.516 90.978 104.548 93.3829C104.576 93.4469 104.575 93.5776 104.575 93.6213L104.519 95.0049C104.511 95.1044 104.459 95.2167 104.415 95.2584C102.32 97.2765 100.013 99.0308 97.5371 100.491C98.709 99.4318 99.5515 98.0497 100.098 96.2983C100.703 94.3571 101.013 92.3367 101.314 90.3778L101.341 90.2035C101.447 89.5152 101.559 88.8283 101.672 88.1263L101.801 87.3327C101.819 87.2171 101.773 87.1015 101.684 87.0322C101.595 86.9613 101.466 86.9442 101.364 86.9882L101.252 87.0345C101.132 87.0835 101.028 87.1271 100.93 87.1774C96.2496 89.5149 93.1687 94.9669 93.6041 100.14C93.6724 100.951 93.5982 101.712 93.3769 102.466C93.3562 102.534 93.2899 102.609 93.2629 102.621C91.04 103.559 88.9264 104.243 86.7997 104.712C86.6903 104.738 86.6036 104.816 86.5682 104.921C86.5324 105.027 86.5541 105.142 86.627 105.229C86.8581 105.503 87.0594 105.798 87.2249 106.106C87.2929 106.232 87.4547 106.297 87.5759 106.265C89.3086 105.87 90.996 105.358 92.5928 104.743C92.7218 104.691 92.8203 104.666 92.9126 104.681C93.2679 104.728 93.6432 104.801 94.0599 104.905C94.1459 104.926 94.2171 104.965 94.2184 104.962C95.1286 106.776 96.6929 107.932 99.0022 108.495C99.5046 108.615 100.023 108.704 100.542 108.759C101.086 108.816 101.692 108.845 102.344 108.845C103.247 108.845 103.891 108.789 103.899 108.789C105.901 108.565 107.61 108.114 109.124 107.411C109.745 107.123 110.453 106.736 110.997 106.043C111.101 105.91 111.084 105.719 110.957 105.608C109.419 104.251 107.854 103.265 106.169 102.593C103.674 101.602 101.401 101.333 99.1736 101.762C98.8407 101.826 98.5156 101.908 98.1997 102.001C100.284 100.756 102.279 99.2916 104.164 97.6235C104.2 97.5907 104.259 97.5618 104.305 97.5536C104.614 97.5024 105.023 97.4393 105.442 97.4091C105.481 97.4091 105.53 97.4278 105.536 97.4298C106.671 98.7005 108.134 99.3182 110.008 99.3182C110.103 99.3182 110.199 99.3162 110.295 99.3129C112.332 99.2472 114.381 98.6874 116.384 97.6482C117.84 96.8887 119.357 96.0044 120.588 94.6858C120.861 94.3926 121.105 94.0609 121.32 93.7684L121.341 93.7398C121.436 93.6108 121.532 93.4807 121.631 93.3523C121.685 93.2831 121.707 93.1937 121.693 93.1038C121.678 93.0171 121.628 92.9399 121.542 92.8841C121.521 92.8723 120.999 92.5929 120.524 92.4087C117.338 91.1777 114.122 91.0516 111.054 92.0403C110.049 92.363 109.104 92.8477 108.184 93.5175C109.886 91.5389 111.462 89.3698 112.893 87.0359C112.908 87.0112 112.949 86.9446 112.962 86.9324C113.087 86.8526 113.215 86.7771 113.343 86.7026C113.572 86.5683 113.809 86.4294 114.032 86.2639C114.219 86.1237 114.272 86.1201 114.462 86.2422C114.731 86.4166 115.043 86.5072 115.315 86.5785C116.908 86.9863 118.513 86.783 120.289 85.9493C121.911 85.1889 123.158 83.9868 124.264 82.8014C125.874 81.0723 126.926 79.5123 127.574 77.8916C127.711 77.5514 127.808 77.1997 127.909 76.832C127.951 76.6777 127.993 76.5234 128.039 76.3717C128.088 76.2088 128.002 76.0364 127.841 75.9796L127.707 75.9694C127.051 75.9694 121.196 76.0656 117.771 79.3885C117.026 80.1116 116.358 80.8799 115.748 81.7212C117.103 78.852 118.252 75.8282 119.178 72.6895L119.192 72.6436C119.203 72.6051 119.219 72.547 119.231 72.5312L120.126 71.3012C120.16 71.252 120.164 71.252 120.216 71.252C120.24 71.252 120.265 71.2536 120.294 71.2553L120.486 71.2668C121.152 71.3081 121.545 71.3022 121.868 71.2517C123.143 71.0504 124.294 70.4081 125.387 69.2878C127.941 66.6676 129.7 63.3985 130.763 59.2948C130.877 58.8551 130.908 58.4112 130.943 57.9403C130.958 57.7269 130.974 57.5069 130.999 57.2797C131.009 57.1707 130.966 57.0666 130.884 56.9986Z" fill="#FFC700"/>
<path d="M44.1986 104.71C42.0738 104.24 39.9605 103.556 37.7369 102.619C37.7103 102.607 37.6443 102.532 37.6237 102.465C37.402 101.71 37.3278 100.948 37.3961 100.138C37.8315 94.9642 34.7506 89.5126 30.0712 87.1754C29.9718 87.1248 29.868 87.0811 29.7485 87.0322L29.6375 86.9863C29.5321 86.9413 29.4037 86.96 29.3187 87.0283C29.2267 87.0992 29.1811 87.2148 29.1998 87.3307L29.3279 88.124C29.4415 88.826 29.5528 89.5129 29.6595 90.2005L29.6864 90.3804C29.9869 92.3344 30.2975 94.3551 30.9026 96.2963C31.4487 98.0478 32.2912 99.4298 33.4631 100.489C30.9873 99.0289 28.6804 97.2745 26.5851 95.2568C26.5411 95.2144 26.4889 95.1021 26.4814 95.0095L26.4252 93.6249C26.4249 93.5756 26.4242 93.4449 26.4522 93.3802C27.4842 90.976 27.7485 88.2698 27.2609 85.1074C26.7907 82.0574 25.4885 79.2526 23.39 76.7706C23.1444 76.48 22.9276 76.3329 22.7457 76.3329C22.7014 76.3329 22.6613 76.3418 22.6298 76.3582C22.5333 76.4061 22.4679 76.499 22.4551 76.6064L22.399 77.0894C22.3557 77.448 22.314 77.8 22.2765 78.1526C22.2118 78.7739 22.1409 79.3941 22.0697 80.0147L22.0595 80.1043C21.8822 81.6538 21.6983 83.2562 21.6011 84.8605C21.4881 86.7321 21.5216 88.9179 22.6279 90.9399C22.6338 90.9501 22.639 90.9609 22.6449 90.9711C21.1073 89.0483 19.7036 86.979 18.4512 84.7863C18.3406 84.5913 18.331 84.4202 18.3517 84.172C18.4407 83.1222 18.9286 82.2691 19.4425 81.5041C20.4351 80.0226 21.036 78.2715 21.391 75.8259C21.8871 72.4058 21.386 68.9749 19.9025 65.6277C19.8618 65.5354 19.8142 65.4464 19.7633 65.3509L19.6474 65.1322C19.5919 65.0255 19.4734 64.9552 19.3483 64.9608C19.2235 64.9673 19.1135 65.0465 19.0682 65.1614C18.7083 66.069 18.3603 66.9434 18.0145 67.8112L17.7935 68.3658C17.0561 70.218 16.2289 72.3805 15.7482 74.6117C15.4094 76.1861 15.3887 77.7057 15.6859 79.1525C14.5327 76.4078 13.5847 73.5074 12.8587 70.5001C12.8505 70.4666 12.8479 70.3799 12.9198 70.1799C13.2593 69.2507 13.8776 68.4081 14.6611 67.8076C16.376 66.4922 17.349 64.6639 18.0743 63.0491C19.5594 59.7466 19.9623 56.2381 19.3056 52.3225C19.2987 52.2815 19.2862 52.2408 19.2714 52.1965L19.2596 52.161C19.2311 52.0733 19.166 52.0024 19.08 51.9653C18.996 51.9302 18.8902 51.9367 18.8249 51.9689C18.7592 51.9929 18.6597 52.0293 18.595 52.1242C18.2234 52.6207 17.8461 53.1217 17.4685 53.6225L17.4051 53.7069C16.4529 54.9713 15.4682 56.2782 14.5218 57.5801C13.4255 59.0843 12.6512 60.5464 12.1544 62.0503C11.9147 62.7766 11.7581 63.4756 11.6842 64.1547C11.3687 61.7147 11.1897 59.2235 11.1507 56.7116C11.1415 56.112 11.2176 55.6356 11.6271 55.1139C12.0605 54.5576 12.4654 54.247 13.0236 54.0421C15.3171 53.2042 16.7885 51.4334 17.8139 49.9844C19.4704 47.6403 20.442 44.9126 20.7842 41.6455C20.8206 41.3093 20.8413 40.9691 20.8626 40.6093L20.8679 40.5275C20.8781 40.3525 20.8889 40.1703 20.9027 39.9772C20.9112 39.8491 20.8426 39.729 20.728 39.6708C20.617 39.615 20.4749 39.6314 20.3783 39.7132L20.1061 39.9463C20.0037 40.0337 19.916 40.1085 19.825 40.1814C19.388 40.5324 18.9493 40.8798 18.5097 41.2282L18.4637 41.2643C17.4987 42.0287 16.5005 42.8191 15.5473 43.6354C13.6977 45.2128 12.5068 46.7829 11.7992 48.5774C11.6823 48.8732 11.5798 49.1658 11.4918 49.4554C11.7827 46.604 12.2552 43.7959 12.9041 41.0716C12.9829 40.7383 13.0269 40.6405 13.1887 40.5873C13.2905 40.5528 13.3854 40.4865 13.4547 40.4044C13.9252 39.8695 14.5448 39.7848 15.1451 39.7726C17.148 39.7257 18.7366 38.7265 20.026 37.7552C23.1877 35.374 25.3647 29.3324 25.3647 29.1275C25.3647 29.0208 25.3115 28.9213 25.2212 28.8612C25.1322 28.8024 25.012 28.7942 24.9214 28.8346C24.2627 29.114 23.604 29.3862 22.9221 29.6683C21.4215 30.2905 19.87 30.9334 18.38 31.6364C16.8804 32.346 15.6954 33.2949 14.8482 34.4625C15.6556 32.1683 16.5918 29.9191 17.6399 27.7576C17.7604 27.5245 18.3265 27.2769 19.1381 27.2769C19.4021 27.2769 19.6579 27.3051 19.8789 27.3583C21.786 27.8154 23.6769 27.5383 25.7698 26.4925C27.911 25.422 29.6874 23.6719 31.2004 21.1407C31.2293 21.0917 31.2861 20.9423 31.3167 20.8586C31.3551 20.7562 31.3397 20.6432 31.276 20.5575C31.2169 20.4761 31.1223 20.4275 31.0018 20.4275C31.0008 20.4275 31.0002 20.4275 30.9992 20.4275L30.2433 20.4751C29.78 20.5043 29.3302 20.5329 28.8803 20.5559L28.3999 20.5802C26.9657 20.6524 25.4822 20.7266 24.0309 21.0724C22.3757 21.4703 21.1605 22.0814 20.2286 22.9876C21.3315 21.1518 22.5126 19.405 23.7567 17.7688C23.7902 17.7255 23.9508 17.6592 24.0825 17.6372C24.1481 17.6217 24.3872 17.5715 24.705 17.5715C25.1266 17.5715 25.4957 17.6572 25.8086 17.8292C27.7968 18.8015 30.0295 18.8737 32.4538 18.041C34.4423 17.3617 36.1264 16.0998 37.6026 14.1845C37.6506 14.1228 37.6939 14.0555 37.7333 13.9846C37.7783 13.9028 37.7813 13.8128 37.7419 13.7308C37.6276 13.4911 37.1331 13.3784 36.9249 13.341C36.414 13.2517 35.8351 13.1499 35.2612 13.0721C34.9982 13.0353 34.7348 12.9969 34.4708 12.9578L34.437 12.9526C33.5426 12.8206 32.6179 12.684 31.6864 12.637C29.9842 12.55 28.4728 12.8974 27.2359 13.6664C28.0676 12.7812 28.9174 11.9412 29.7803 11.1522C30.0532 10.9033 30.3618 10.6525 30.7825 10.3376C30.815 10.3126 30.8977 10.2834 30.9992 10.2775C33.9803 10.1609 36.461 8.8449 38.5821 6.25486C39.7376 4.84492 40.6235 3.06657 41.291 0.818022L41.314 0.740859C41.3852 0.504446 41.4246 0.374418 41.2608 0.222063C41.1344 0.104514 40.9118 0.13932 40.3332 0.368509C39.8078 0.570445 39.2792 0.766471 38.7364 0.96775C37.646 1.37195 36.5181 1.78994 35.4296 2.26211C33.6105 3.05278 32.1579 4.25126 31.1128 5.82374C30.3169 7.02025 30.0023 8.22234 30.1504 9.4924C30.1494 9.50652 30.1369 9.54034 30.1349 9.54428C28.2361 11.1837 26.421 13.0294 24.5572 15.2261C25.8001 13.3259 26.6101 11.1381 27.0166 8.60192C27.4264 6.04504 27.4523 3.76924 27.0964 1.64481C27.0737 1.51183 27.0432 1.37885 27.0041 1.21237L26.946 0.955929C26.9197 0.845931 26.837 0.756948 26.7283 0.722799C26.6196 0.690621 26.4978 0.719187 26.4167 0.79635C26.2867 0.918825 26.1593 1.0344 26.0348 1.1467L25.9472 1.22583C25.6287 1.51281 25.3279 1.7837 25.0557 2.09005C22.4108 5.07378 20.8682 8.2253 20.3399 11.7249C20.0992 13.3065 20.199 14.6531 20.6453 15.8404C20.793 16.2338 21.0235 16.5851 21.253 16.9338C21.3581 17.0931 21.4632 17.253 21.5594 17.4172C21.6303 17.535 21.6362 17.5656 21.6359 17.56C21.5922 18.0279 21.5295 18.5493 21.4448 19.1752C21.4412 19.183 21.4294 19.2014 21.3916 19.2513L21.3611 19.2937C19.9147 21.3042 18.5803 23.4237 17.3795 25.6174C17.8517 23.9789 18.2276 21.9051 18.201 19.4953C18.1688 16.6048 17.5033 14.0269 16.1656 11.6132C16.1127 11.5193 16.0168 11.4582 15.8825 11.4491C15.785 11.4491 15.6911 11.4973 15.6297 11.5797C15.5896 11.6356 15.5489 11.6881 15.5102 11.738C15.4238 11.8496 15.3431 11.9554 15.2708 12.0683C14.2056 13.7386 13.6343 15.5804 13.2551 16.9985C12.5619 19.5994 12.2434 21.7711 12.2526 23.8335C12.2579 25.5865 12.5774 26.9341 13.2584 28.0745C13.4701 28.4294 13.7368 28.74 14.0047 29.0526C14.1469 29.2184 14.293 29.3888 14.4253 29.5635C14.5179 29.685 14.5626 29.8088 14.5652 29.8778C14.5826 30.2935 14.5734 30.716 14.5645 31.1245L14.5583 31.4069C14.5573 31.4555 14.5461 31.5113 14.5294 31.554C13.6744 33.6256 12.9228 35.7786 12.2818 37.9897C12.3761 37.2368 12.4293 36.5078 12.4427 35.7966C12.5202 31.7599 11.282 28.1549 8.76158 25.0806L8.23622 24.4406C8.17547 24.3654 8.08551 24.3227 7.98963 24.3227L7.93709 24.3273C7.8248 24.346 7.73023 24.4238 7.69116 24.5299C7.64322 24.6576 7.59626 24.7781 7.55062 24.8947C7.46262 25.12 7.37955 25.3334 7.30928 25.5504C6.76849 27.2444 6.50318 29.095 6.44933 31.5497L6.44835 31.5977C6.40796 33.3836 6.35247 35.8301 7.086 38.1713C7.80805 40.476 9.0814 41.6406 9.32832 41.8498L9.35458 41.8734C10.0267 42.4733 10.4644 43.022 10.555 43.3783C10.5915 43.5221 10.6286 43.6662 10.6719 43.8087C10.8637 44.4428 10.7438 45.0469 10.6145 45.6994C10.5501 46.0287 10.4831 46.3689 10.4598 46.7179C10.3672 48.1147 10.2536 49.5352 10.1436 50.9087L10.1338 51.0357C10.1055 51.3861 10.0773 51.7364 10.0494 52.0868C9.76896 48.9438 8.72809 46.0868 6.93726 43.5602C5.84057 42.0143 4.53307 40.6917 3.05024 39.6282C2.98621 39.5822 2.9189 39.5411 2.82893 39.4876C2.78526 39.4623 2.73469 39.4321 2.67329 39.3937C2.5807 39.3382 2.46183 39.3333 2.36628 39.3799C2.26844 39.4275 2.20112 39.5244 2.18996 39.6341C2.16993 39.8327 2.14662 40.0251 2.12199 40.2248C2.07241 40.6336 2.02546 41.0197 2.02349 41.4164C2.00149 45.528 2.87129 49.3808 4.60958 52.8666C5.0939 53.8392 5.73385 54.6804 6.51238 55.368C7.28433 56.046 8.11736 56.446 9.05743 56.5898C9.07811 56.5934 9.12736 56.6233 9.13492 56.6292C9.18581 56.7313 9.23868 56.8338 9.29154 56.9365C9.47936 57.2994 9.67341 57.6747 9.76995 58.051C9.85039 58.3691 9.85039 58.7169 9.85039 59.0853C9.85039 59.2202 9.85039 59.3562 9.85466 59.4895C9.94496 62.6745 10.0635 63.7836 10.5731 66.6295C10.2621 65.7833 9.87174 64.9348 9.36772 64.1186C7.32669 60.815 4.7337 58.5727 1.44066 57.2642C1.23117 57.1798 1.02103 57.1191 0.777393 57.0482L0.728797 57.0337C0.629963 57.0048 0.525219 56.974 0.413252 56.9398C0.312119 56.9067 0.196868 56.9293 0.114452 56.9976C0.0323642 57.0656 -0.0106498 57.1697 0.000185774 57.278C0.0244838 57.5039 0.0412297 57.7236 0.0566622 57.938C0.0904824 58.4082 0.122332 58.8521 0.23627 59.2915C1.29881 63.3955 3.05746 66.6643 5.61236 69.2848C6.70479 70.4052 7.85599 71.0474 9.13163 71.2487C9.45342 71.2989 9.84678 71.3052 10.5127 71.2638L10.7044 71.2523C10.7337 71.2507 10.7593 71.249 10.7826 71.249C10.8351 71.249 10.8394 71.249 10.8758 71.3029L11.768 72.528C11.7795 72.5441 11.7962 72.6022 11.8077 72.6422L11.8208 72.6862C12.7468 75.8253 13.8957 78.8487 15.2505 81.7182C14.6407 80.8766 13.9725 80.1083 13.2278 79.3856C9.80311 76.0627 3.94795 75.9665 3.29158 75.9665L3.20982 75.9671L3.15827 75.9766C2.99738 76.0338 2.91036 76.2058 2.95994 76.3677C3.00558 76.5204 3.04827 76.6747 3.09719 76.856C3.19077 77.1965 3.28797 77.5481 3.42423 77.8883C4.07305 79.5097 5.12476 81.0694 6.73467 82.7985C7.84088 83.9838 9.08796 85.1859 10.7097 85.946C12.4857 86.78 14.0894 86.9836 15.6842 86.5751C15.9554 86.5039 16.2674 86.4136 16.5356 86.2396C16.7267 86.1171 16.7789 86.121 16.9668 86.2609C17.1894 86.4264 17.4261 86.5653 17.656 86.6999C17.783 86.7745 17.9111 86.8497 18.0306 86.9252C18.0497 86.9413 18.0904 87.0079 18.1055 87.0325C19.5364 89.3665 21.1128 91.5356 22.815 93.5142C21.8943 92.8444 20.949 92.3597 19.9449 92.0369C16.8765 91.0483 13.6603 91.174 10.4749 92.4057C9.99947 92.5899 9.47837 92.869 9.44357 92.8887C9.37067 92.9366 9.32043 93.0141 9.30467 93.1031C9.29088 93.1904 9.31354 93.2798 9.36673 93.3481C9.46622 93.4774 9.56243 93.6075 9.65765 93.7365L9.67867 93.7647C9.89374 94.0576 10.1374 94.3889 10.4106 94.6825C11.6409 96.0015 13.1582 96.8857 14.6148 97.6449C16.6177 98.6841 18.666 99.2439 20.7031 99.3096C20.7989 99.3129 20.8948 99.3149 20.9904 99.3149C22.8643 99.3149 24.3271 98.6972 25.4546 97.4341C25.4684 97.4242 25.5173 97.4055 25.5443 97.4052C25.9751 97.436 26.3845 97.4987 26.6905 97.5496C26.7388 97.5582 26.7982 97.5871 26.8353 97.6206C28.7191 99.2883 30.7142 100.752 32.7982 101.998C32.4823 101.904 32.1569 101.823 31.824 101.757C29.5968 101.329 27.3239 101.598 24.8281 102.59C23.1444 103.261 21.5784 104.247 20.0408 105.604C19.914 105.715 19.8963 105.907 20.0007 106.039C20.5448 106.732 21.2527 107.119 21.8736 107.407C23.388 108.111 25.0974 108.561 27.1013 108.785C27.1072 108.785 27.7511 108.841 28.6541 108.841C29.3059 108.841 29.9123 108.812 30.4557 108.755C30.9752 108.7 31.4933 108.611 31.996 108.49C34.305 107.928 35.8696 106.772 36.766 104.978C36.7821 104.963 36.851 104.922 36.9384 104.901C37.3551 104.798 37.73 104.725 38.0866 104.677C38.1707 104.664 38.2754 104.686 38.4074 104.74C40.0019 105.354 41.6893 105.866 43.4194 106.26C43.4437 106.266 43.469 106.269 43.4942 106.269C43.6105 106.269 43.7175 106.205 43.774 106.101C43.9392 105.794 44.1404 105.499 44.3719 105.225C44.4445 105.138 44.4662 105.023 44.4304 104.917C44.3962 104.814 44.3095 104.736 44.1986 104.71Z" fill="#FFC700"/>
<path d="M81.0746 62.3346L94.2677 49.4744C94.7149 49.0384 94.8765 48.3856 94.6831 47.7916C94.49 47.197 93.9765 46.7636 93.3579 46.6739L75.1268 44.0264L66.9722 27.5061C66.6958 26.9456 66.1251 26.591 65.5002 26.591C64.8754 26.591 64.3044 26.9462 64.0282 27.5061L55.8766 44.0264L37.6426 46.6739C37.0243 46.7636 36.5104 47.1973 36.3174 47.7916C36.124 48.3856 36.2852 49.0384 36.7327 49.4744L49.9259 62.3346L46.8131 80.4921C46.7074 81.1078 46.9605 81.7304 47.4662 82.0975C47.9712 82.4649 48.641 82.5135 49.195 82.2226L65.5009 73.6509L81.8068 82.2226C82.0468 82.349 82.3092 82.411 82.5702 82.411C82.9107 82.411 83.2492 82.3053 83.5352 82.0975C84.0409 81.7307 84.2944 81.1078 84.1883 80.4921L81.0746 62.3346Z" fill="#FFC700"/>
</svg>
