<svg width="66" height="66" viewBox="0 0 66 66" fill="none" xmlns="http://www.w3.org/2000/svg">
<path d="M33.0045 0C23.5759 0 15.8685 7.70745 15.8685 17.1361C15.8685 26.5647 23.5759 34.2722 33.0045 34.2722C42.4332 34.2722 50.1406 26.5647 50.1406 17.1361C50.1406 7.70745 42.4332 0 33.0045 0Z" fill="#23A1DC"/>
<path d="M62.4129 47.9659C61.9638 46.8435 61.3653 45.7959 60.6918 44.8231C57.2496 39.7346 51.9368 36.3672 45.9504 35.5441C45.2021 35.4693 44.379 35.6189 43.7803 36.0679C40.6374 38.3876 36.896 39.5849 33.0048 39.5849C29.1135 39.5849 25.3721 38.3876 22.2292 36.0679C21.6305 35.6189 20.8074 35.3944 20.0591 35.5441C14.0727 36.3672 8.68501 39.7346 5.3177 44.8231C4.64423 45.7959 4.04554 46.9184 3.59665 47.9659C3.37221 48.415 3.44698 48.9388 3.67142 49.3878C4.27012 50.4354 5.01835 51.4831 5.69181 52.381C6.73939 53.8028 7.86188 55.0748 9.13404 56.2721C10.1816 57.3197 11.3789 58.2925 12.5763 59.2653C18.4878 63.6803 25.5967 65.9999 32.93 65.9999C40.2633 65.9999 47.3722 63.6802 53.2837 59.2653C54.481 58.3674 55.6782 57.3197 56.7259 56.2721C57.9232 55.0748 59.1204 53.8027 60.1682 52.381C60.9164 51.4082 61.59 50.4354 62.1886 49.3878C62.5625 48.9388 62.6373 48.4148 62.4129 47.9659Z" fill="#23A1DC"/>
</svg>
